<svg width="460" height="460" viewBox="0 0 460 460" fill="none" xmlns="http://www.w3.org/2000/svg">
<circle cx="230" cy="230" r="205" stroke="black" stroke-width="10"/>
<circle cx="230" cy="231" r="150" stroke="black" stroke-width="3"/>
<path d="M44.1248 200.166L72.7877 202.973L72.3744 207.193L43.7115 204.386L44.1248 200.166ZM42.2651 219.155L70.928 221.962L70.5147 226.182L41.8519 223.375L42.2651 219.155ZM60.6023 203.87L58.7621 222.66L55.2589 222.317L57.099 203.526L60.6023 203.87ZM42.1559 241.859C42.6571 241.706 43.2132 241.592 43.824 241.515C44.4359 241.465 45.1815 241.423 46.0609 241.39L46.0533 241.19L55.7663 240.821C57.072 240.771 58.0319 240.401 58.6461 239.71C59.288 239.046 59.5821 238.007 59.5283 236.595C59.4766 235.236 59.1686 234.153 58.6042 233.347C58.0409 232.568 57.2637 232.131 56.2727 232.035L56.1221 228.078C58.0479 228.191 59.613 228.999 60.8176 230.501C62.0223 232.003 62.6738 234.047 62.7721 236.631C62.8734 239.296 62.3233 241.318 61.1215 242.698C59.9464 244.077 58.1597 244.813 55.7615 244.904L46.2084 245.267C45.5955 245.29 44.9708 245.354 44.3343 245.459C43.6978 245.563 43.0228 245.709 42.3094 245.896L42.1559 241.859ZM41.4886 234.839C41.4095 232.761 41.853 231.089 42.8189 229.825C43.8116 228.56 45.1872 227.893 46.946 227.827C48.758 227.758 50.2079 228.343 51.2958 229.582C52.4114 230.848 53.2018 232.686 53.6671 235.096L55.0018 241.77L52.0839 241.881L50.8935 235.842C50.6286 234.491 50.2299 233.479 49.6972 232.806C49.1656 232.159 48.4201 231.853 47.4608 231.89C46.5281 231.925 45.8336 232.259 45.3773 232.89C44.9486 233.547 44.7571 234.475 44.8027 235.674C44.8635 237.273 45.3001 238.577 46.1124 239.587C46.9257 240.623 47.9186 241.119 49.0911 241.075L46.153 241.707C44.7224 241.281 43.5975 240.47 42.778 239.273C41.9853 238.076 41.5555 236.598 41.4886 234.839ZM42.8608 251L62.9984 247.738L63.6316 251.647L58.8933 252.415L58.9253 252.612L43.526 255.106L42.8608 251ZM45.1761 265.294L58.1273 263.196C59.5224 262.97 60.5047 262.446 61.0739 261.625C61.6475 260.829 61.8234 259.747 61.6017 258.378C61.4098 257.194 60.976 256.184 60.3003 255.347C59.6289 254.538 58.7899 253.944 57.7833 253.567C56.7809 253.216 55.648 253.143 54.3845 253.348L59.1185 252.054C60.7256 252.469 62.0743 253.291 63.1647 254.519C64.2551 255.747 64.9474 257.269 65.2416 259.085C65.5912 261.244 65.2608 263.04 64.2503 264.473C63.2398 265.907 61.7343 266.785 59.7337 267.109L45.8348 269.361L45.1761 265.294ZM51.3438 288.941L55.826 287.595L55.8262 288.012C54.2477 288.041 52.8325 287.547 51.5806 286.531C50.3543 285.507 49.4727 284.101 48.9357 282.313C48.4065 280.551 48.3638 278.879 48.8078 277.298C49.2594 275.743 50.1274 274.368 51.4118 273.175C52.7039 272.007 54.3587 271.12 56.3764 270.515C58.4195 269.901 60.3185 269.734 62.0733 270.015C63.8282 270.295 65.3264 270.973 66.5681 272.048C67.8098 273.123 68.6991 274.554 69.236 276.342C69.7959 278.206 69.8092 279.873 69.2758 281.342C68.7757 282.828 67.7914 284.001 66.323 284.86L66.0853 284.346L78.8807 280.503L80.0658 284.449L52.4829 292.733L51.3438 288.941ZM52.5678 282.308C53.0971 284.071 54.1153 285.282 55.6225 285.943C57.1552 286.597 58.9942 286.601 61.1396 285.957C63.2338 285.328 64.7239 284.31 65.6098 282.902C66.5289 281.512 66.7238 279.936 66.1945 278.174C65.6729 276.437 64.6458 275.242 63.113 274.589C61.6135 273.953 59.7783 273.962 57.6075 274.614C55.4877 275.25 53.9772 276.247 53.0759 277.603C52.2079 278.978 52.0386 280.546 52.5678 282.308ZM61.9054 315.001C60.3519 311.902 59.8481 309.053 60.394 306.452C60.9399 303.852 62.506 301.71 65.0921 300.025L66.9384 303.709C65.258 304.819 64.2577 306.216 63.9374 307.898C63.6172 309.579 63.9769 311.457 65.0165 313.531C65.8889 315.272 66.868 316.421 67.9538 316.981C69.0515 317.564 70.1964 317.557 71.3883 316.959C72.4611 316.422 73.158 315.699 73.4791 314.793C73.824 313.874 73.8764 312.67 73.6364 311.179L72.8261 305.992C72.4179 303.333 72.5052 301.187 73.0878 299.552C73.6705 297.918 74.8201 296.67 76.5365 295.81C77.9907 295.081 79.4215 294.811 80.8289 295C82.2483 295.214 83.5727 295.832 84.8021 296.857C86.0673 297.893 87.142 299.293 88.0263 301.057C89.3886 303.775 89.7848 306.291 89.2147 308.605C88.6804 310.931 87.2572 312.823 84.9451 314.28L83.0988 310.597C84.5765 309.498 85.4458 308.287 85.7068 306.963C85.9917 305.627 85.7159 304.125 84.8794 302.456C84.0907 300.882 83.1653 299.81 82.1033 299.239C81.0414 298.667 79.9502 298.663 78.8297 299.224C77.9238 299.678 77.3044 300.347 76.9714 301.23C76.6741 302.124 76.6516 303.359 76.9036 304.933L77.7499 310.37C78.1461 312.886 78.0051 314.955 77.327 316.578C76.6608 318.224 75.4218 319.501 73.6101 320.41C71.3215 321.557 69.1511 321.66 67.0989 320.72C65.0706 319.768 63.3394 317.862 61.9054 315.001ZM72.2163 332.429L84.6375 314.233L87.0877 317.936L75.3955 333.827L74.3139 332.192L93.467 327.576L95.8289 331.145L74.2471 335.498L72.2163 332.429ZM86.0166 351.575C84.6951 350.003 83.8749 348.323 83.5562 346.536C83.2546 344.768 83.4329 343.033 84.0911 341.33C84.7492 339.627 85.8743 338.106 87.4662 336.767C89.0785 335.411 90.7613 334.553 92.5147 334.194C94.3056 333.837 96.0442 333.978 97.7303 334.616C99.4165 335.254 100.912 336.348 102.216 337.899C103.486 339.409 104.258 340.99 104.532 342.641C104.843 344.296 104.676 345.9 104.031 347.453C103.403 349.026 102.303 350.474 100.732 351.795C100.487 352.001 100.244 352.188 100.002 352.357C99.7978 352.528 99.5664 352.688 99.3075 352.836L88.2887 339.734L90.6766 337.725L99.816 348.593L98.1976 348.595C99.8712 347.188 100.829 345.738 101.072 344.245C101.314 342.751 100.869 341.331 99.7364 339.984C98.5178 338.535 97.0481 337.803 95.3272 337.787C93.6438 337.774 91.9246 338.505 90.1694 339.981C88.3938 341.474 87.3578 343.06 87.0615 344.738C86.7823 346.436 87.2778 348.04 88.5478 349.55C89.3202 350.469 90.1732 351.11 91.107 351.475C92.0612 351.822 93.0429 351.85 94.0522 351.559L96.5753 354.559C94.6767 355.285 92.7942 355.387 90.9276 354.866C89.0782 354.366 87.4412 353.268 86.0166 351.575ZM95.4438 361.77L115.795 341.392L118.739 344.331L98.3873 364.709L95.4438 361.77ZM108.92 374.71C107.134 373.147 106.179 371.586 106.056 370.026C105.97 368.463 106.638 366.868 108.061 365.243L120.517 351.002L124.645 352.54L111.135 367.985C110.433 368.788 110.126 369.565 110.214 370.315C110.302 371.065 110.817 371.852 111.761 372.678C112.122 372.994 112.469 373.244 112.803 373.43C113.137 373.616 113.439 373.756 113.71 373.851L111.498 376.38C111.189 376.288 110.808 376.096 110.354 375.805C109.9 375.514 109.422 375.149 108.92 374.71ZM112.179 354.337L114.365 351.838L124.903 361.056L122.717 363.555L112.179 354.337ZM121.181 383.859C119.507 382.67 118.291 381.25 117.533 379.6C116.797 377.966 116.533 376.241 116.742 374.427C116.951 372.613 117.657 370.858 118.861 369.162C120.081 367.444 121.494 366.191 123.101 365.402C124.744 364.607 126.463 364.306 128.255 364.5C130.047 364.693 131.77 365.376 133.422 366.549C135.031 367.692 136.176 369.028 136.856 370.557C137.573 372.08 137.815 373.675 137.581 375.34C137.368 377.021 136.668 378.698 135.479 380.373C135.294 380.633 135.106 380.876 134.914 381.1C134.76 381.317 134.576 381.53 134.362 381.738L120.403 371.827L122.209 369.283L133.788 377.504L132.222 377.913C133.488 376.13 134.051 374.485 133.91 372.979C133.769 371.473 132.981 370.21 131.546 369.191C130.003 368.095 128.396 367.756 126.726 368.173C125.094 368.583 123.613 369.724 122.286 371.594C120.943 373.485 120.339 375.28 120.474 376.979C120.63 378.693 121.513 380.121 123.122 381.263C124.101 381.958 125.088 382.364 126.083 382.482C127.094 382.579 128.051 382.359 128.955 381.823L132.151 384.093C130.496 385.272 128.7 385.845 126.762 385.81C124.846 385.79 122.986 385.14 121.181 383.859ZM145.999 398.268L148.207 394.142L148.503 394.436C147.409 395.575 146.061 396.23 144.458 396.4C142.867 396.547 141.249 396.18 139.603 395.299C137.98 394.431 136.765 393.282 135.958 391.852C135.174 390.434 134.812 388.85 134.873 387.098C134.957 385.358 135.496 383.56 136.489 381.702C137.496 379.821 138.718 378.358 140.154 377.312C141.591 376.266 143.128 375.682 144.766 375.56C146.404 375.439 148.046 375.818 149.692 376.699C151.408 377.617 152.599 378.784 153.263 380.198C153.964 381.601 154.101 383.126 153.674 384.773L153.142 384.579L159.445 372.799L163.078 374.743L149.49 400.136L145.999 398.268ZM142.161 392.722C143.784 393.59 145.361 393.723 146.893 393.121C148.437 392.496 149.738 391.195 150.795 389.22C151.826 387.292 152.156 385.518 151.783 383.897C151.446 382.265 150.467 381.015 148.845 380.147C147.246 379.292 145.674 379.177 144.13 379.802C142.621 380.416 141.333 381.723 140.263 383.721C139.219 385.673 138.86 387.447 139.185 389.042C139.547 390.627 140.539 391.854 142.161 392.722ZM165.096 406.492L166.114 403.374L174.29 406.043C175.836 406.548 177.177 406.523 178.312 405.968C179.472 405.421 180.288 404.425 180.76 402.98C181.256 401.459 181.185 400.089 180.545 398.87C179.93 397.659 178.824 396.794 177.227 396.272L169.28 393.678L170.273 390.636L177.84 393.106C179.386 393.611 180.698 393.632 181.774 393.17C182.884 392.691 183.667 391.754 184.122 390.36C184.552 389.042 184.474 387.908 183.886 386.959C183.332 385.992 182.281 385.257 180.735 384.752L173.016 382.232L174.034 379.114L182.361 381.833C184.846 382.644 186.624 383.898 187.697 385.594C188.779 387.266 188.98 389.141 188.302 391.219C187.871 392.538 187.186 393.605 186.247 394.42C185.341 395.218 184.278 395.727 183.056 395.945C181.843 396.138 180.577 396.019 179.259 395.589L179.71 394.853C181.13 395.316 182.29 396.059 183.19 397.083C184.098 398.081 184.7 399.245 184.995 400.575C185.29 401.906 185.198 403.306 184.718 404.777C184.246 406.222 183.473 407.386 182.399 408.27C181.351 409.162 180.093 409.705 178.627 409.899C177.161 410.094 175.591 409.918 173.918 409.372L165.096 406.492ZM162.131 405.524L171.068 378.146L175.099 379.462L166.161 406.84L162.131 405.524ZM186.342 421.411L193.314 411.315L194.39 410.179L203.534 395.615L207.774 396.438L190.543 422.227L186.342 421.411ZM192.538 414.261L187.866 392.573L192.303 393.434L196.068 412.868L192.538 414.261ZM215.152 417.531L215.659 388.735L219.898 388.81L219.392 417.605L215.152 417.531ZM234.229 417.866L234.736 389.071L238.975 389.145L238.469 417.941L234.229 417.866ZM217.527 400.81L236.404 401.142L236.342 404.661L217.465 404.329L217.527 400.81ZM256.868 416.167C256.676 415.68 256.518 415.134 256.393 414.532C256.295 413.926 256.194 413.186 256.091 412.312L255.892 412.335L254.752 402.682C254.598 401.385 254.153 400.457 253.416 399.9C252.702 399.313 251.643 399.102 250.24 399.268C248.889 399.428 247.835 399.821 247.076 400.447C246.344 401.071 245.97 401.88 245.953 402.876L242.021 403.341C241.981 401.412 242.662 399.788 244.063 398.467C245.465 397.147 247.45 396.335 250.019 396.032C252.667 395.719 254.726 396.107 256.198 397.195C257.666 398.257 258.541 399.979 258.822 402.363L259.944 411.857C260.016 412.466 260.129 413.083 260.283 413.71C260.438 414.336 260.637 414.997 260.88 415.693L256.868 416.167ZM249.924 417.39C247.858 417.634 246.157 417.325 244.82 416.463C243.48 415.574 242.706 414.256 242.5 412.508C242.287 410.707 242.755 409.215 243.904 408.032C245.077 406.819 246.846 405.885 249.212 405.23L255.759 403.369L256.102 406.269L250.176 407.935C248.851 408.307 247.873 408.785 247.244 409.369C246.642 409.951 246.397 410.718 246.509 411.672C246.619 412.598 247.006 413.264 247.672 413.669C248.36 414.044 249.301 414.161 250.492 414.02C252.081 413.833 253.347 413.294 254.289 412.404C255.257 411.511 255.673 410.481 255.535 409.316L256.399 412.195C256.088 413.655 255.369 414.841 254.241 415.753C253.111 416.638 251.672 417.184 249.924 417.39ZM274.114 413.189C272.221 413.642 270.43 413.604 268.74 413.076C267.045 412.521 265.583 411.568 264.356 410.217C263.154 408.859 262.314 407.181 261.837 405.184C261.359 403.187 261.353 401.324 261.817 399.596C262.301 397.835 263.177 396.337 264.444 395.102C265.712 393.867 267.279 393.026 269.147 392.58C270.729 392.201 272.213 392.162 273.601 392.461C274.988 392.76 276.211 393.345 277.27 394.216C278.328 395.087 279.147 396.221 279.728 397.618L275.915 398.529C275.377 397.424 274.583 396.626 273.534 396.137C272.511 395.641 271.338 395.552 270.015 395.868C268.874 396.141 267.943 396.665 267.224 397.44C266.504 398.215 266.035 399.177 265.816 400.326C265.597 401.475 265.658 402.763 265.999 404.189C266.334 405.59 266.862 406.766 267.583 407.718C268.304 408.67 269.164 409.341 270.162 409.733C271.155 410.099 272.234 410.143 273.401 409.864C274.672 409.56 275.668 408.966 276.389 408.081C277.129 407.163 277.489 406.09 277.47 404.861L281.282 403.95C281.364 405.438 281.117 406.813 280.541 408.075C279.991 409.331 279.165 410.405 278.063 411.299C276.961 412.194 275.644 412.824 274.114 413.189ZM286.788 409.402L276.726 381.863L280.634 380.435L290.695 407.975L286.788 409.402ZM299.224 404.859L286.156 398.348L291.923 385.807L296.844 384.009L290.154 397.867L289.696 396.032L304.221 403.033L299.224 404.859ZM325.427 392.096C323.7 393.104 321.918 393.728 320.081 393.967C318.23 394.182 316.435 394.042 314.693 393.545C312.962 393.012 311.34 392.138 309.827 390.921C308.313 389.705 307.012 388.164 305.923 386.299C304.834 384.433 304.127 382.561 303.802 380.682C303.487 378.766 303.529 376.935 303.93 375.188C304.34 373.405 305.1 371.772 306.211 370.29C307.322 368.808 308.741 367.562 310.468 366.554C312.402 365.424 314.37 364.801 316.37 364.683C318.356 364.542 320.243 364.892 322.031 365.732C323.841 366.558 325.406 367.837 326.725 369.568L323.133 371.666C321.691 369.883 320.009 368.827 318.087 368.497C316.175 368.131 314.252 368.513 312.318 369.643C310.683 370.597 309.467 371.847 308.671 373.393C307.885 374.902 307.57 376.583 307.726 378.438C307.868 380.269 308.511 382.163 309.654 384.121C310.783 386.055 312.124 387.557 313.675 388.628C315.236 389.662 316.874 390.219 318.588 390.299C320.302 390.379 321.977 389.942 323.612 388.987C325.546 387.858 326.842 386.375 327.5 384.54C328.167 382.668 328.068 380.673 327.201 378.554L330.828 376.436C331.677 378.473 332.017 380.482 331.847 382.465C331.663 384.425 331.029 386.247 329.943 387.931C328.867 389.578 327.361 390.966 325.427 392.096ZM339.751 382.917L322.712 359.698L326.066 357.236L343.105 380.455L339.751 382.917ZM352.89 372.702C351.87 373.602 350.785 374.186 349.635 374.455C348.467 374.703 347.328 374.642 346.217 374.27C345.127 373.881 344.149 373.197 343.285 372.217L333.967 361.661L337.086 358.908L345.768 368.744C346.703 369.804 347.66 370.364 348.639 370.425C349.618 370.486 350.587 370.093 351.546 369.246C352.406 368.487 352.989 367.617 353.296 366.634C353.623 365.635 353.667 364.617 353.43 363.582C353.194 362.509 352.662 361.503 351.832 360.564L355.452 363.878C355.94 365.439 355.964 367.018 355.525 368.615C355.088 370.175 354.209 371.537 352.89 372.702ZM358.173 367.505L354.996 363.906L354.876 364.012L344.553 352.317L347.641 349.59L361.142 364.884L358.173 367.505ZM372.68 352.832C371.414 354.276 370.018 355.18 368.492 355.544C366.947 355.891 365.421 355.67 363.914 354.881L364.117 354.527L367.846 357.798L365.235 360.775L343.583 341.785L346.326 338.658L356.16 347.282L355.779 347.534C354.915 346.173 354.583 344.712 354.783 343.149C355.001 341.566 355.725 340.073 356.956 338.67C358.169 337.287 359.546 336.384 361.087 335.962C362.645 335.519 364.253 335.546 365.911 336.042C367.586 336.518 369.215 337.451 370.799 338.84C372.403 340.246 373.552 341.768 374.245 343.404C374.938 345.041 375.158 346.67 374.905 348.293C374.652 349.916 373.911 351.429 372.68 352.832ZM369.513 351.226C370.709 349.863 371.177 348.358 370.918 346.712C370.659 345.066 369.688 343.505 368.004 342.028C366.339 340.568 364.695 339.835 363.069 339.828C361.424 339.804 359.994 340.483 358.781 341.867C357.585 343.23 357.108 344.745 357.35 346.411C357.589 348.039 358.55 349.592 360.234 351.069C361.878 352.51 363.533 353.252 365.199 353.294C366.862 353.299 368.3 352.609 369.513 351.226Z" fill="black"/>
<path d="M415.739 259.698L387.076 256.891L387.489 252.671L416.152 255.478L415.739 259.698ZM417.599 240.709L388.936 237.902L389.349 233.682L418.012 236.489L417.599 240.709ZM399.262 255.994L401.102 237.204L404.605 237.547L402.765 256.337L399.262 255.994ZM417.708 218.005C417.207 218.158 416.651 218.272 416.04 218.349C415.428 218.399 414.682 218.44 413.803 218.474L413.811 218.674L404.098 219.043C402.792 219.093 401.832 219.463 401.218 220.154C400.576 220.818 400.282 221.857 400.336 223.269C400.387 224.628 400.695 225.711 401.26 226.517C401.823 227.296 402.6 227.733 403.591 227.829L403.742 231.786C401.816 231.672 400.251 230.865 399.046 229.363C397.842 227.861 397.19 225.817 397.092 223.233C396.99 220.568 397.541 218.545 398.742 217.165C399.918 215.786 401.704 215.051 404.102 214.96L413.656 214.597C414.268 214.573 414.893 214.51 415.53 214.405C416.166 214.301 416.841 214.155 417.554 213.968L417.708 218.005ZM418.375 225.025C418.454 227.103 418.011 228.775 417.045 230.039C416.052 231.304 414.677 231.97 412.918 232.037C411.106 232.106 409.656 231.521 408.568 230.281C407.453 229.016 406.662 227.178 406.197 224.768L404.862 218.093L407.78 217.983L408.97 224.022C409.235 225.373 409.634 226.385 410.167 227.058C410.698 227.705 411.444 228.01 412.403 227.974C413.336 227.939 414.03 227.605 414.487 226.974C414.915 226.317 415.107 225.389 415.061 224.19C415 222.591 414.564 221.287 413.752 220.277C412.938 219.241 411.945 218.745 410.773 218.789L413.711 218.157C415.141 218.583 416.266 219.394 417.086 220.591C417.879 221.788 418.308 223.266 418.375 225.025ZM417.003 208.864L396.866 212.126L396.232 208.217L400.971 207.449L400.939 207.252L416.338 204.757L417.003 208.864ZM414.688 194.57L401.737 196.668C400.341 196.894 399.359 197.418 398.79 198.239C398.216 199.035 398.041 200.117 398.262 201.486C398.454 202.67 398.888 203.68 399.564 204.516C400.235 205.326 401.074 205.92 402.081 206.297C403.083 206.648 404.216 206.721 405.479 206.516L400.745 207.81C399.138 207.395 397.79 206.573 396.699 205.345C395.609 204.117 394.917 202.595 394.622 200.778C394.273 198.62 394.603 196.824 395.614 195.391C396.624 193.957 398.13 193.079 400.13 192.755L414.029 190.503L414.688 194.57ZM408.52 170.923L404.038 172.269L404.038 171.852C405.616 171.823 407.031 172.317 408.283 173.333C409.51 174.357 410.391 175.763 410.928 177.551C411.457 179.313 411.5 180.984 411.056 182.566C410.605 184.121 409.737 185.496 408.452 186.689C407.16 187.857 405.505 188.743 403.488 189.349C401.444 189.963 399.545 190.13 397.791 189.849C396.036 189.569 394.537 188.891 393.296 187.816C392.054 186.741 391.165 185.31 390.628 183.522C390.068 181.658 390.055 179.991 390.588 178.522C391.088 177.036 392.073 175.863 393.541 175.004L393.779 175.518L380.983 179.36L379.798 175.415L407.381 167.13L408.52 170.923ZM407.296 177.555C406.767 175.793 405.749 174.582 404.241 173.92C402.709 173.267 400.87 173.263 398.724 173.907C396.63 174.536 395.14 175.554 394.254 176.962C393.335 178.352 393.14 179.928 393.669 181.69C394.191 183.426 395.218 184.622 396.751 185.275C398.25 185.91 400.086 185.902 402.256 185.25C404.376 184.614 405.887 183.617 406.788 182.26C407.656 180.886 407.825 179.318 407.296 177.555ZM397.959 144.863C399.512 147.962 400.016 150.811 399.47 153.412C398.924 156.012 397.358 158.154 394.772 159.839L392.925 156.155C394.606 155.045 395.606 153.648 395.926 151.966C396.247 150.285 395.887 148.407 394.847 146.333C393.975 144.592 392.996 143.443 391.91 142.883C390.812 142.3 389.668 142.307 388.476 142.905C387.403 143.442 386.706 144.165 386.385 145.071C386.04 145.99 385.987 147.194 386.228 148.685L387.038 153.872C387.446 156.531 387.359 158.677 386.776 160.312C386.193 161.946 385.044 163.194 383.327 164.054C381.873 164.783 380.442 165.053 379.035 164.863C377.616 164.65 376.291 164.031 375.062 163.007C373.797 161.971 372.722 160.571 371.838 158.807C370.475 156.089 370.079 153.573 370.649 151.259C371.184 148.933 372.607 147.041 374.919 145.584L376.765 149.267C375.287 150.366 374.418 151.577 374.157 152.901C373.872 154.237 374.148 155.739 374.985 157.408C375.773 158.981 376.699 160.054 377.761 160.625C378.823 161.197 379.914 161.201 381.034 160.64C381.94 160.186 382.56 159.517 382.893 158.634C383.19 157.74 383.212 156.505 382.96 154.931L382.114 149.494C381.718 146.978 381.859 144.909 382.537 143.286C383.203 141.64 384.442 140.363 386.254 139.454C388.542 138.307 390.713 138.204 392.765 139.144C394.793 140.096 396.524 142.002 397.959 144.863ZM387.648 127.435L375.226 145.631L372.776 141.928L384.468 126.037L385.55 127.672L366.397 132.288L364.035 128.718L385.617 124.366L387.648 127.435ZM373.847 108.289C375.169 109.861 375.989 111.54 376.308 113.328C376.609 115.095 376.431 116.831 375.773 118.534C375.115 120.237 373.99 121.758 372.398 123.097C370.785 124.453 369.103 125.311 367.349 125.67C365.558 126.027 363.82 125.886 362.134 125.248C360.447 124.61 358.952 123.516 357.648 121.965C356.378 120.455 355.606 118.874 355.332 117.222C355.021 115.568 355.188 113.964 355.833 112.411C356.461 110.838 357.561 109.39 359.132 108.069C359.377 107.863 359.62 107.675 359.862 107.507C360.066 107.335 360.298 107.176 360.556 107.028L371.575 120.13L369.187 122.138L360.048 111.271L361.666 111.268C359.993 112.676 359.035 114.126 358.792 115.619C358.55 117.112 358.995 118.533 360.128 119.88C361.346 121.329 362.816 122.061 364.537 122.077C366.22 122.09 367.939 121.359 369.695 119.883C371.47 118.389 372.506 116.804 372.802 115.126C373.082 113.428 372.586 111.824 371.316 110.314C370.544 109.395 369.691 108.754 368.757 108.389C367.803 108.042 366.821 108.014 365.812 108.305L363.289 105.305C365.187 104.579 367.07 104.477 368.936 104.998C370.786 105.498 372.423 106.595 373.847 108.289ZM364.42 98.0944L344.069 118.472L341.125 115.533L361.477 95.1547L364.42 98.0944ZM350.944 85.1539C352.73 86.7165 353.685 88.278 353.808 89.8383C353.894 91.4011 353.225 92.9954 351.803 94.6212L339.347 108.862L335.218 107.323L348.729 91.8785C349.431 91.0757 349.738 90.2992 349.65 89.5492C349.562 88.7991 349.047 88.0115 348.103 87.1863C347.742 86.8703 347.394 86.6195 347.061 86.4339C346.727 86.2483 346.425 86.1079 346.154 86.0126L348.366 83.4836C348.675 83.5764 349.056 83.7682 349.51 84.0592C349.964 84.3501 350.442 84.715 350.944 85.1539ZM347.685 105.527L345.499 108.026L334.961 98.8081L337.147 96.3092L347.685 105.527ZM338.683 76.0054C340.357 77.1942 341.573 78.6136 342.331 80.2638C343.067 81.8984 343.331 83.6228 343.122 85.4369C342.913 87.2509 342.207 89.006 341.003 90.7019C339.783 92.4197 338.37 93.6729 336.763 94.4618C335.12 95.2569 333.402 95.5578 331.609 95.3645C329.817 95.1711 328.094 94.4878 326.442 93.3145C324.833 92.1721 323.688 90.8361 323.008 89.3067C322.291 87.7835 322.049 86.1893 322.283 84.524C322.496 82.8432 323.196 81.1657 324.385 79.4915C324.57 79.2305 324.759 78.9882 324.95 78.7645C325.104 78.547 325.288 78.3342 325.502 78.1259L339.461 88.0372L337.655 90.5812L326.076 82.3603L327.642 81.9514C326.376 83.7343 325.814 85.3789 325.954 86.8851C326.095 88.3912 326.883 89.6538 328.318 90.6727C329.862 91.7688 331.468 92.1084 333.138 91.6914C334.77 91.2807 336.251 90.1403 337.578 88.2704C338.921 86.3787 339.525 84.5837 339.39 82.8853C339.234 81.1715 338.351 79.7434 336.742 78.6009C335.763 77.9062 334.776 77.4998 333.781 77.3817C332.77 77.2854 331.813 77.5051 330.909 78.0408L327.713 75.7714C329.368 74.5918 331.164 74.0195 333.102 74.0543C335.018 74.0737 336.878 74.7241 338.683 76.0054ZM313.865 61.5959L311.657 65.7224L311.361 65.4278C312.455 64.2889 313.803 63.6343 315.406 63.4639C316.997 63.3171 318.615 63.684 320.261 64.5647C321.884 65.4328 323.099 66.5819 323.906 68.012C324.69 69.4295 325.052 71.0143 324.991 72.7664C324.907 74.5059 324.368 76.3044 323.375 78.1619C322.368 80.0428 321.146 81.5063 319.71 82.5522C318.273 83.598 316.736 84.1818 315.098 84.3035C313.46 84.4252 311.818 84.0457 310.172 83.1651C308.456 82.2466 307.265 81.0803 306.601 79.6661C305.9 78.2628 305.763 76.7379 306.191 75.0914L306.722 75.285L300.419 87.0647L296.786 85.1209L310.374 59.7277L313.865 61.5959ZM317.703 67.1424C316.08 66.2743 314.503 66.1411 312.971 66.743C311.427 67.3683 310.126 68.6685 309.07 70.6435C308.038 72.5715 307.708 74.346 308.081 75.9669C308.418 77.5987 309.397 78.8487 311.02 79.7168C312.618 80.5723 314.19 80.6874 315.734 80.062C317.243 79.4476 318.531 78.1411 319.601 76.1426C320.645 74.1911 321.004 72.4174 320.679 70.8217C320.317 69.2369 319.325 68.0104 317.703 67.1424ZM294.767 53.3715L293.75 56.4896L285.574 53.8208C284.028 53.316 282.687 53.3412 281.552 53.8964C280.392 54.4433 279.576 55.4393 279.104 56.8842C278.608 58.4052 278.679 59.7751 279.319 60.9939C279.934 62.2044 281.04 63.0704 282.637 63.5917L290.584 66.186L289.591 69.228L282.024 66.7579C280.478 66.2531 279.166 66.2317 278.09 66.6938C276.98 67.1729 276.197 68.1096 275.742 69.5039C275.312 70.8221 275.39 71.9558 275.978 72.9051C276.532 73.8714 277.583 74.607 279.129 75.1118L286.848 77.6316L285.83 80.7497L277.503 78.0312C275.018 77.2203 273.24 75.9664 272.166 74.2696C271.085 72.5982 270.884 70.7231 271.562 68.6444C271.993 67.3262 272.677 66.2594 273.617 65.444C274.523 64.6457 275.586 64.1373 276.808 63.9189C278.021 63.7258 279.287 63.8444 280.605 64.2748L280.154 65.0112C278.734 64.5478 277.574 63.8045 276.674 62.7813C275.766 61.7834 275.164 60.6192 274.869 59.2886C274.574 57.9581 274.666 56.5576 275.146 55.0873C275.618 53.6424 276.391 52.478 277.465 51.5943C278.513 50.7024 279.771 50.159 281.237 49.9644C282.703 49.7698 284.272 49.9455 285.946 50.4917L294.767 53.3715ZM297.733 54.3397L288.796 81.7179L284.765 80.4021L293.703 53.0239L297.733 54.3397ZM273.522 38.4529L266.55 48.5491L265.474 49.6848L256.33 64.2491L252.09 63.4258L269.321 37.6372L273.522 38.4529ZM267.326 45.603L271.998 67.291L267.561 66.4295L263.796 46.9957L267.326 45.603ZM244.712 42.3333L244.205 71.1289L239.966 71.0542L240.472 42.2587L244.712 42.3333ZM225.635 41.9976L225.128 70.7931L220.889 70.7185L221.395 41.923L225.635 41.9976ZM242.337 59.0541L223.46 58.7219L223.522 55.2025L242.399 55.5347L242.337 59.0541ZM202.996 43.6967C203.188 44.1842 203.346 44.7294 203.471 45.3323C203.569 45.9382 203.67 46.6782 203.773 47.5521L203.972 47.5286L205.113 57.1815C205.266 58.4791 205.711 59.4066 206.448 59.964C207.162 60.551 208.221 60.7615 209.624 60.5957C210.975 60.4362 212.029 60.0431 212.788 59.4164C213.52 58.7929 213.894 57.9834 213.911 56.9879L217.843 56.5233C217.883 58.4519 217.202 60.0764 215.801 61.3966C214.399 62.7168 212.414 63.5286 209.846 63.8321C207.197 64.145 205.138 63.7573 203.666 62.6691C202.198 61.6073 201.324 59.8847 201.042 57.5013L199.92 48.0073C199.848 47.3982 199.735 46.7806 199.581 46.1544C199.426 45.5282 199.227 44.867 198.984 44.1707L202.996 43.6967ZM209.94 42.4735C212.006 42.2295 213.707 42.5386 215.044 43.4011C216.385 44.29 217.158 45.6083 217.364 47.3562C217.577 49.157 217.109 50.6489 215.96 51.8319C214.787 53.0445 213.018 53.9785 210.652 54.634L204.105 56.495L203.762 53.5951L209.688 51.9284C211.013 51.557 211.991 51.079 212.62 50.4945C213.222 49.9131 213.467 49.1457 213.355 48.1924C213.245 47.2655 212.858 46.5997 212.192 46.195C211.504 45.8198 210.563 45.7027 209.372 45.8435C207.783 46.0312 206.517 46.5701 205.575 47.4601C204.607 48.3532 204.191 49.3824 204.329 50.5476L203.465 47.6691C203.776 46.2092 204.495 45.0233 205.623 44.1114C206.753 43.2259 208.192 42.68 209.94 42.4735ZM185.75 46.6746C187.643 46.222 189.434 46.2599 191.124 46.7884C192.819 47.3428 194.281 48.2957 195.508 49.6473C196.71 51.0051 197.55 52.6825 198.027 54.6796C198.505 56.6766 198.511 58.5395 198.047 60.2681C197.563 62.0288 196.688 63.5268 195.42 64.762C194.152 65.9972 192.585 66.838 190.718 67.2844C189.135 67.6626 187.651 67.7022 186.263 67.4032C184.876 67.1043 183.653 66.5192 182.595 65.648C181.536 64.7768 180.717 63.6429 180.136 62.2463L183.949 61.335C184.487 62.4401 185.281 63.2374 186.33 63.7269C187.354 64.2226 188.527 64.3123 189.849 63.9961C190.99 63.7234 191.921 63.1994 192.64 62.4242C193.36 61.649 193.829 60.6869 194.048 59.5379C194.267 58.3888 194.206 57.1011 193.865 55.6746C193.53 54.2741 193.002 53.0979 192.281 52.1461C191.56 51.1943 190.7 50.5225 189.702 50.1305C188.709 49.7645 187.63 49.721 186.463 50C185.192 50.3038 184.196 50.8982 183.475 51.7834C182.735 52.7006 182.375 53.7738 182.394 55.0029L178.582 55.9143C178.5 54.4258 178.747 53.0507 179.323 51.7889C179.873 50.5333 180.699 49.4585 181.801 48.5644C182.903 47.6703 184.22 47.0403 185.75 46.6746ZM173.076 50.4617L183.138 78.0013L179.23 79.4289L169.169 51.8893L173.076 50.4617ZM160.64 55.0052L173.708 61.5162L167.941 74.0566L163.019 75.8548L169.71 61.9973L170.168 63.8317L155.643 56.8309L160.64 55.0052ZM134.437 67.7679C136.164 66.7595 137.946 66.136 139.783 65.8973C141.634 65.6816 143.429 65.822 145.171 66.3185C146.902 66.8515 148.524 67.7261 150.037 68.9425C151.551 70.1589 152.852 71.6998 153.941 73.5652C155.03 75.4305 155.737 77.3027 156.062 79.1818C156.377 81.0973 156.335 82.9286 155.934 84.6755C155.524 86.4589 154.764 88.0917 153.653 89.574C152.542 91.0562 151.123 92.3016 149.396 93.31C147.462 94.4394 145.494 95.063 143.494 95.1809C141.508 95.3217 139.621 94.9721 137.833 94.1321C136.023 93.3054 134.458 92.0267 133.139 90.2958L136.731 88.1983C138.173 89.981 139.855 91.0371 141.777 91.3665C143.689 91.7324 145.612 91.3506 147.546 90.2212C149.181 89.2666 150.397 88.0166 151.193 86.4711C151.979 84.962 152.295 83.2804 152.138 81.4262C151.996 79.5951 151.353 77.7008 150.21 75.7433C149.081 73.8089 147.74 72.3064 146.189 71.2359C144.628 70.2019 142.99 69.6449 141.276 69.5649C139.562 69.4849 137.887 69.9222 136.252 70.8769C134.318 72.0063 133.022 73.4886 132.364 75.3239C131.697 77.1957 131.796 79.191 132.663 81.3098L129.036 83.4274C128.187 81.3911 127.847 79.3815 128.017 77.3986C128.201 75.4387 128.835 73.6169 129.921 71.9331C130.997 70.2857 132.503 68.8973 134.437 67.7679ZM120.113 76.9473L137.152 100.166L133.798 102.627L116.759 79.4084L120.113 76.9473ZM106.974 87.162C107.994 86.262 109.079 85.6778 110.229 85.4094C111.397 85.1609 112.536 85.2224 113.646 85.5939C114.737 85.983 115.714 86.6674 116.579 87.647L125.897 98.2028L122.778 100.956L114.096 91.1197C113.16 90.0601 112.203 89.4998 111.225 89.4389C110.246 89.3779 109.277 89.771 108.317 90.618C107.458 91.3769 106.875 92.2474 106.568 93.2296C106.241 94.2294 106.196 95.2469 106.434 96.2819C106.67 97.3546 107.202 98.3607 108.032 99.3003L104.412 95.9859C103.924 94.4252 103.899 92.8461 104.339 91.2487C104.776 89.689 105.655 88.3267 106.974 87.162ZM101.691 92.359L104.867 95.9576L104.987 95.8517L115.311 107.547L112.222 110.274L98.7221 94.9796L101.691 92.359ZM87.1842 107.031C88.4502 105.588 89.846 104.684 91.3716 104.319C92.9173 103.972 94.4436 104.194 95.9503 104.983L95.7467 105.336L92.0177 102.066L94.6287 99.0888L116.281 118.078L113.538 121.206L103.705 112.582L104.085 112.33C104.949 113.69 105.281 115.152 105.081 116.715C104.863 118.297 104.139 119.79 102.908 121.194C101.695 122.577 100.318 123.48 98.7774 123.902C97.219 124.344 95.6111 124.318 93.9534 123.821C92.2783 123.345 90.6487 122.413 89.0649 121.024C87.461 119.617 86.3125 118.096 85.6195 116.459C84.9265 114.823 84.7063 113.193 84.959 111.571C85.2117 109.948 85.9534 108.435 87.1842 107.031ZM90.3508 108.638C89.1551 110.001 88.6868 111.506 88.9459 113.152C89.2049 114.798 90.1764 116.359 91.8605 117.836C93.5246 119.295 95.1694 120.029 96.795 120.035C98.4406 120.06 99.87 119.38 101.083 117.997C102.279 116.634 102.756 115.119 102.514 113.453C102.276 111.825 101.314 110.272 99.6299 108.795C97.9859 107.353 96.331 106.611 94.6654 106.569C93.0022 106.565 91.564 107.255 90.3508 108.638Z" fill="black"/>
<g clip-path="url(#clip0_30_85)">
<mask id="mask0_30_85" style="mask-type:luminance" maskUnits="userSpaceOnUse" x="366" y="276" width="50" height="51">
<path d="M415.965 292.858L382.449 276.778L366.369 310.294L399.885 326.374L415.965 292.858Z" fill="white"/>
</mask>
<g mask="url(#mask0_30_85)">
<mask id="mask1_30_85" style="mask-type:alpha" maskUnits="userSpaceOnUse" x="370" y="281" width="42" height="41">
<path fill-rule="evenodd" clip-rule="evenodd" d="M407.925 309.616C414.357 296.21 412.614 291.25 399.207 284.818C385.801 278.386 380.841 280.13 374.409 293.536C367.977 306.942 369.721 311.902 383.127 318.334C396.533 324.766 401.493 323.023 407.925 309.616Z" fill="black"/>
</mask>
<g mask="url(#mask1_30_85)">
<g filter="url(#filter0_ii_30_85)">
<path fill-rule="evenodd" clip-rule="evenodd" d="M407.925 309.616C414.357 296.21 412.614 291.25 399.207 284.818C385.801 278.386 380.841 280.13 374.409 293.536C367.977 306.942 369.721 311.902 383.127 318.334C396.533 324.766 401.493 323.023 407.925 309.616Z" fill="url(#paint0_radial_30_85)"/>
</g>
<g filter="url(#filter1_ddii_30_85)">
<path d="M379.932 298.263C379.769 298.185 379.576 298.272 379.527 298.444L378.264 302.848C378.225 302.984 378.29 303.129 378.418 303.19L398.244 312.702C398.389 312.772 398.562 312.711 398.632 312.566L400.585 308.494C400.655 308.349 400.594 308.176 400.449 308.107L393.027 304.546C390.766 303.461 389.941 301.59 390.42 300.591C390.852 299.692 391.877 299.864 393.237 300.517L402.06 304.75C402.204 304.819 402.378 304.758 402.447 304.613L404.411 300.521C404.48 300.377 404.419 300.203 404.274 300.134L394.792 295.584C391.71 294.106 389.173 294.314 387.726 297.332C387.145 298.543 386.869 299.864 387.063 301.116C387.102 301.364 386.843 301.579 386.616 301.47L379.932 298.263Z" fill="white"/>
</g>
</g>
</g>
</g>
<g clip-path="url(#clip1_30_85)">
<mask id="mask2_30_85" style="mask-type:luminance" maskUnits="userSpaceOnUse" x="44" y="133" width="50" height="51">
<path d="M44.3016 167.409L77.8177 183.489L93.8975 149.973L60.3814 133.893L44.3016 167.409Z" fill="white"/>
</mask>
<g mask="url(#mask2_30_85)">
<mask id="mask3_30_85" style="mask-type:alpha" maskUnits="userSpaceOnUse" x="48" y="138" width="42" height="42">
<path fill-rule="evenodd" clip-rule="evenodd" d="M52.3415 150.651C45.9096 164.057 47.6532 169.017 61.0596 175.449C74.4661 181.881 79.4257 180.137 85.8576 166.731C92.2895 153.324 90.5459 148.365 77.1395 141.933C63.733 135.501 58.7734 137.244 52.3415 150.651Z" fill="black"/>
</mask>
<g mask="url(#mask3_30_85)">
<g filter="url(#filter2_ii_30_85)">
<path fill-rule="evenodd" clip-rule="evenodd" d="M52.3415 150.651C45.9096 164.057 47.6532 169.017 61.0596 175.449C74.4661 181.881 79.4257 180.137 85.8576 166.731C92.2895 153.324 90.5459 148.365 77.1395 141.933C63.733 135.501 58.7734 137.244 52.3415 150.651Z" fill="url(#paint1_radial_30_85)"/>
</g>
<g filter="url(#filter3_ddii_30_85)">
<path d="M80.3352 162.004C80.4973 162.082 80.6905 161.995 80.7399 161.822L82.0022 157.418C82.0412 157.282 81.9763 157.138 81.8487 157.077L62.0224 147.565C61.8778 147.495 61.7043 147.556 61.6349 147.701L59.6813 151.773C59.6119 151.918 59.6729 152.091 59.8175 152.16L67.2392 155.721C69.5002 156.806 70.3256 158.677 69.8463 159.676C69.4149 160.575 68.3898 160.403 67.0293 159.75L58.2069 155.517C58.0624 155.448 57.8889 155.509 57.8195 155.654L55.8562 159.746C55.7868 159.89 55.8479 160.064 55.9924 160.133L65.475 164.683C68.5564 166.161 71.0934 165.952 72.5409 162.935C73.1219 161.724 73.3974 160.402 73.2037 159.151C73.1652 158.903 73.4235 158.688 73.6503 158.797L80.3352 162.004Z" fill="white"/>
</g>
</g>
</g>
</g>
<defs>
<filter id="filter0_ii_30_85" x="364.803" y="275.212" width="52.7279" height="52.7279" filterUnits="userSpaceOnUse" color-interpolation-filters="sRGB">
<feFlood flood-opacity="0" result="BackgroundImageFix"/>
<feBlend mode="normal" in="SourceGraphic" in2="BackgroundImageFix" result="shape"/>
<feColorMatrix in="SourceAlpha" type="matrix" values="0 0 0 0 0 0 0 0 0 0 0 0 0 0 0 0 0 0 127 0" result="hardAlpha"/>
<feOffset dx="6" dy="6"/>
<feGaussianBlur stdDeviation="4"/>
<feComposite in2="hardAlpha" operator="arithmetic" k2="-1" k3="1"/>
<feColorMatrix type="matrix" values="0 0 0 0 1 0 0 0 0 1 0 0 0 0 1 0 0 0 0.2 0"/>
<feBlend mode="normal" in2="shape" result="effect1_innerShadow_30_85"/>
<feColorMatrix in="SourceAlpha" type="matrix" values="0 0 0 0 0 0 0 0 0 0 0 0 0 0 0 0 0 0 127 0" result="hardAlpha"/>
<feOffset dx="-6" dy="-6"/>
<feGaussianBlur stdDeviation="4"/>
<feComposite in2="hardAlpha" operator="arithmetic" k2="-1" k3="1"/>
<feColorMatrix type="matrix" values="0 0 0 0 0 0 0 0 0 0 0 0 0 0 0 0 0 0 0.05 0"/>
<feBlend mode="normal" in2="effect1_innerShadow_30_85" result="effect2_innerShadow_30_85"/>
</filter>
<filter id="filter1_ddii_30_85" x="362.253" y="290.691" width="58.1859" height="50.0401" filterUnits="userSpaceOnUse" color-interpolation-filters="sRGB">
<feFlood flood-opacity="0" result="BackgroundImageFix"/>
<feColorMatrix in="SourceAlpha" type="matrix" values="0 0 0 0 0 0 0 0 0 0 0 0 0 0 0 0 0 0 127 0" result="hardAlpha"/>
<feOffset dy="12"/>
<feGaussianBlur stdDeviation="8"/>
<feColorMatrix type="matrix" values="0 0 0 0 0 0 0 0 0 0 0 0 0 0 0 0 0 0 0.25 0"/>
<feBlend mode="normal" in2="BackgroundImageFix" result="effect1_dropShadow_30_85"/>
<feColorMatrix in="SourceAlpha" type="matrix" values="0 0 0 0 0 0 0 0 0 0 0 0 0 0 0 0 0 0 127 0" result="hardAlpha"/>
<feOffset dy="4"/>
<feGaussianBlur stdDeviation="4"/>
<feColorMatrix type="matrix" values="0 0 0 0 0 0 0 0 0 0 0 0 0 0 0 0 0 0 0.125 0"/>
<feBlend mode="normal" in2="effect1_dropShadow_30_85" result="effect2_dropShadow_30_85"/>
<feBlend mode="normal" in="SourceGraphic" in2="effect2_dropShadow_30_85" result="shape"/>
<feColorMatrix in="SourceAlpha" type="matrix" values="0 0 0 0 0 0 0 0 0 0 0 0 0 0 0 0 0 0 127 0" result="hardAlpha"/>
<feOffset dy="-2"/>
<feGaussianBlur stdDeviation="3"/>
<feComposite in2="hardAlpha" operator="arithmetic" k2="-1" k3="1"/>
<feColorMatrix type="matrix" values="0 0 0 0 0 0 0 0 0 0 0 0 0 0 0 0 0 0 0.125 0"/>
<feBlend mode="normal" in2="shape" result="effect3_innerShadow_30_85"/>
<feColorMatrix in="SourceAlpha" type="matrix" values="0 0 0 0 0 0 0 0 0 0 0 0 0 0 0 0 0 0 127 0" result="hardAlpha"/>
<feOffset dy="-2"/>
<feGaussianBlur stdDeviation="3"/>
<feComposite in2="hardAlpha" operator="arithmetic" k2="-1" k3="1"/>
<feColorMatrix type="matrix" values="0 0 0 0 0.92549 0 0 0 0 0.215686 0 0 0 0 0.313726 0 0 0 0.5 0"/>
<feBlend mode="normal" in2="effect3_innerShadow_30_85" result="effect4_innerShadow_30_85"/>
</filter>
<filter id="filter2_ii_30_85" x="42.7357" y="132.327" width="52.7277" height="52.7277" filterUnits="userSpaceOnUse" color-interpolation-filters="sRGB">
<feFlood flood-opacity="0" result="BackgroundImageFix"/>
<feBlend mode="normal" in="SourceGraphic" in2="BackgroundImageFix" result="shape"/>
<feColorMatrix in="SourceAlpha" type="matrix" values="0 0 0 0 0 0 0 0 0 0 0 0 0 0 0 0 0 0 127 0" result="hardAlpha"/>
<feOffset dx="6" dy="6"/>
<feGaussianBlur stdDeviation="4"/>
<feComposite in2="hardAlpha" operator="arithmetic" k2="-1" k3="1"/>
<feColorMatrix type="matrix" values="0 0 0 0 1 0 0 0 0 1 0 0 0 0 1 0 0 0 0.2 0"/>
<feBlend mode="normal" in2="shape" result="effect1_innerShadow_30_85"/>
<feColorMatrix in="SourceAlpha" type="matrix" values="0 0 0 0 0 0 0 0 0 0 0 0 0 0 0 0 0 0 127 0" result="hardAlpha"/>
<feOffset dx="-6" dy="-6"/>
<feGaussianBlur stdDeviation="4"/>
<feComposite in2="hardAlpha" operator="arithmetic" k2="-1" k3="1"/>
<feColorMatrix type="matrix" values="0 0 0 0 0 0 0 0 0 0 0 0 0 0 0 0 0 0 0.05 0"/>
<feBlend mode="normal" in2="effect1_innerShadow_30_85" result="effect2_innerShadow_30_85"/>
</filter>
<filter id="filter3_ddii_30_85" x="39.8276" y="143.536" width="58.1859" height="50.04" filterUnits="userSpaceOnUse" color-interpolation-filters="sRGB">
<feFlood flood-opacity="0" result="BackgroundImageFix"/>
<feColorMatrix in="SourceAlpha" type="matrix" values="0 0 0 0 0 0 0 0 0 0 0 0 0 0 0 0 0 0 127 0" result="hardAlpha"/>
<feOffset dy="12"/>
<feGaussianBlur stdDeviation="8"/>
<feColorMatrix type="matrix" values="0 0 0 0 0 0 0 0 0 0 0 0 0 0 0 0 0 0 0.25 0"/>
<feBlend mode="normal" in2="BackgroundImageFix" result="effect1_dropShadow_30_85"/>
<feColorMatrix in="SourceAlpha" type="matrix" values="0 0 0 0 0 0 0 0 0 0 0 0 0 0 0 0 0 0 127 0" result="hardAlpha"/>
<feOffset dy="4"/>
<feGaussianBlur stdDeviation="4"/>
<feColorMatrix type="matrix" values="0 0 0 0 0 0 0 0 0 0 0 0 0 0 0 0 0 0 0.125 0"/>
<feBlend mode="normal" in2="effect1_dropShadow_30_85" result="effect2_dropShadow_30_85"/>
<feBlend mode="normal" in="SourceGraphic" in2="effect2_dropShadow_30_85" result="shape"/>
<feColorMatrix in="SourceAlpha" type="matrix" values="0 0 0 0 0 0 0 0 0 0 0 0 0 0 0 0 0 0 127 0" result="hardAlpha"/>
<feOffset dy="-2"/>
<feGaussianBlur stdDeviation="3"/>
<feComposite in2="hardAlpha" operator="arithmetic" k2="-1" k3="1"/>
<feColorMatrix type="matrix" values="0 0 0 0 0 0 0 0 0 0 0 0 0 0 0 0 0 0 0.125 0"/>
<feBlend mode="normal" in2="shape" result="effect3_innerShadow_30_85"/>
<feColorMatrix in="SourceAlpha" type="matrix" values="0 0 0 0 0 0 0 0 0 0 0 0 0 0 0 0 0 0 127 0" result="hardAlpha"/>
<feOffset dy="-2"/>
<feGaussianBlur stdDeviation="3"/>
<feComposite in2="hardAlpha" operator="arithmetic" k2="-1" k3="1"/>
<feColorMatrix type="matrix" values="0 0 0 0 0.92549 0 0 0 0 0.215686 0 0 0 0 0.313726 0 0 0 0.5 0"/>
<feBlend mode="normal" in2="effect3_innerShadow_30_85" result="effect4_innerShadow_30_85"/>
</filter>
<radialGradient id="paint0_radial_30_85" cx="0" cy="0" r="1" gradientUnits="userSpaceOnUse" gradientTransform="translate(366.369 310.294) rotate(-5.73233) scale(35.7122 35.7122)">
<stop stop-color="#FF8C37"/>
<stop offset="1" stop-color="#EC3750"/>
</radialGradient>
<radialGradient id="paint1_radial_30_85" cx="0" cy="0" r="1" gradientUnits="userSpaceOnUse" gradientTransform="translate(93.8975 149.973) rotate(174.267) scale(35.7122 35.7122)">
<stop stop-color="#FF8C37"/>
<stop offset="1" stop-color="#EC3750"/>
</radialGradient>
<clipPath id="clip0_30_85">
<rect width="37.1738" height="37.1738" fill="white" transform="translate(366.369 310.294) rotate(-64.369)"/>
</clipPath>
<clipPath id="clip1_30_85">
<rect width="37.1738" height="37.1738" fill="white" transform="translate(93.8975 149.973) rotate(115.63)"/>
</clipPath>
</defs>
</svg>
